<svg width="226" height="43" viewBox="0 0 226 43" fill="none" xmlns="http://www.w3.org/2000/svg">
<path d="M134.13 33.65L134.19 16.82H138.28V32.18C138.425 32.7077 138.736 33.1749 139.166 33.5133C139.596 33.8516 140.123 34.0432 140.67 34.06C142.32 34.06 142.67 32.18 142.67 32.18V16.69H146.9V33.75H159.51V7.75C159.079 5.91471 158.23 4.20363 157.03 2.75C155.51 1.02 151.85 0 151.85 0H125.74C123.61 0.389733 121.622 1.33883 119.98 2.75C118.45 4.24 117.42 7.75 117.42 7.75V34.36C117.881 36.2612 118.732 38.0457 119.92 39.6C121.03 40.8 124.85 42.1 124.85 42.1L159.66 42.23V38.07H125.17C125.17 38.07 121.9 36.4 121.71 33.27C121.52 30.14 121.58 7.75 121.58 7.75C121.58 7.75 123.05 4.23 125.68 4.1C128.31 3.97 151.34 4.16 151.34 4.16C152.264 4.36982 153.114 4.82531 153.801 5.47834C154.487 6.13136 154.984 6.95769 155.24 7.87L155.43 29.57H151.15L151.08 15.23C150.9 14.6556 150.595 14.1282 150.187 13.6856C149.779 13.243 149.278 12.8962 148.72 12.67L132.97 12.61C132.235 12.6793 131.545 12.9944 131.012 13.5043C130.478 14.0142 130.133 14.6892 130.03 15.42L130.09 31.17C130.184 31.7499 130.447 32.2893 130.845 32.7213C131.243 33.1532 131.76 33.4588 132.33 33.6L134.13 33.65Z" fill="white"/>
<path d="M24.39 33.4498H19.06L16.9 28.1898H7.2L5.2 33.4498H0L9.45 10.2998H14.63L24.39 33.4498ZM15.39 24.2898L12.02 15.7498L8.74 24.3398L15.39 24.2898Z" fill="white"/>
<path d="M25.75 25.9202L30.51 25.4802C30.6804 26.7711 31.3 27.9607 32.26 28.8402C33.2819 29.6008 34.538 29.9794 35.81 29.9102C37.0728 30.0017 38.3297 29.6673 39.38 28.9602C39.7379 28.7104 40.0327 28.3806 40.241 27.9969C40.4493 27.6133 40.5654 27.1865 40.58 26.7502C40.5941 26.2387 40.4116 25.7412 40.07 25.3602C39.5788 24.8815 38.9727 24.5371 38.31 24.3602C37.74 24.1702 36.43 23.8402 34.39 23.3602C32.4082 23.0002 30.5322 22.2006 28.9 21.0202C28.1985 20.4635 27.6324 19.7549 27.2444 18.9477C26.8564 18.1405 26.6566 17.2558 26.66 16.3602C26.6625 15.1753 27.029 14.0198 27.71 13.0502C28.4582 11.9922 29.5017 11.1783 30.71 10.7102C32.2358 10.1331 33.8592 9.85799 35.49 9.90021C38.49 9.90021 40.83 10.5402 42.37 11.8102C43.1257 12.4304 43.7346 13.2103 44.153 14.0939C44.5714 14.9774 44.789 15.9426 44.79 16.9202L39.89 17.1202C39.7835 16.123 39.3007 15.2038 38.54 14.5502C37.6161 13.9667 36.53 13.6934 35.44 13.7702C34.2671 13.7037 33.1019 13.9967 32.1 14.6102C31.8579 14.7638 31.6592 14.9767 31.5227 15.2287C31.3861 15.4808 31.3164 15.7636 31.32 16.0502C31.3235 16.3245 31.3913 16.594 31.5181 16.8372C31.6449 17.0804 31.8271 17.2904 32.05 17.4502C33.4427 18.2375 34.9679 18.7629 36.55 19.0002C38.3698 19.3589 40.1441 19.919 41.84 20.6702C42.9736 21.1972 43.9254 22.0485 44.5751 23.1166C45.2248 24.1846 45.5432 25.4212 45.49 26.6702C45.4878 27.9989 45.0834 29.2958 44.33 30.3902C43.5259 31.5674 42.3816 32.471 41.05 32.9802C39.358 33.588 37.5671 33.873 35.77 33.8202C32.7 33.8202 30.35 33.1502 28.7 31.8202C26.9786 30.3184 25.9186 28.1985 25.75 25.9202Z" fill="white"/>
<path d="M55.06 33.4498V14.2098H47.9V10.2998H67.15V14.2098H59.96V33.4498H55.06Z" fill="white"/>
<path d="M70.32 33.4501V10.3001H80.64C82.5438 10.2207 84.4487 10.4298 86.29 10.9201C87.4488 11.3293 88.4401 12.1097 89.11 13.1401C89.8199 14.2087 90.1895 15.4673 90.17 16.7501C90.2274 18.3388 89.6519 19.8853 88.57 21.0501C87.2625 22.2923 85.568 23.0478 83.77 23.1901C84.738 23.7226 85.6211 24.3967 86.39 25.1901C87.4297 26.3546 88.3634 27.6096 89.18 28.9401L92.18 33.4601H86.28L82.74 28.4601C81.9518 27.274 81.0901 26.1385 80.16 25.0601C79.7547 24.6121 79.2469 24.269 78.68 24.0601C77.8805 23.8325 77.051 23.728 76.22 23.7501H75.22V33.4501H70.32ZM75.22 20.0901H78.9C80.3725 20.157 81.8479 20.0631 83.3 19.8101C83.8586 19.6398 84.3443 19.2879 84.68 18.8101C85.0184 18.2943 85.1895 17.6867 85.17 17.0701C85.2073 16.3795 84.9741 15.7016 84.52 15.1801C84.0277 14.6712 83.3736 14.3495 82.67 14.2701C82.28 14.2201 81.08 14.1901 79.1 14.1901H75.22V20.0901Z" fill="white"/>
<path d="M116.67 33.4498H111.34L109.23 28.1898H99.53L97.53 33.4498H92.33L101.79 10.2998H106.97L116.67 33.4498ZM107.67 24.2898L104.31 15.7498L101.03 24.3398L107.67 24.2898Z" fill="white"/>
<path d="M184.56 33.4498H179.23L177.11 28.1898H167.41L165.41 33.4498H160.21L169.66 10.2998H174.84L184.56 33.4498ZM175.56 24.2898L172.19 15.7498L168.9 24.2898H175.56Z" fill="white"/>
<path d="M190.42 33.4498V23.7498L181.53 10.3398H187.27L192.98 19.4998L198.58 10.3398H204.22L195.3 23.7498V33.4498H190.42Z" fill="white"/>
<path d="M225.43 33.4498H220.1L217.98 28.1898H208.28L206.28 33.4498H201.08L210.53 10.2998H215.71L225.43 33.4498ZM216.43 24.2898L213.06 15.7498L209.79 24.3398L216.43 24.2898Z" fill="white"/>
</svg>
