<svg width="123" height="24" viewBox="0 0 123 24" fill="none" xmlns="http://www.w3.org/2000/svg">
<path d="M72.8514 18.4723L72.8837 9.45001H75.0885V17.6842C75.1667 17.9671 75.334 18.2176 75.5659 18.399C75.7977 18.5804 76.082 18.6831 76.3768 18.6921C77.2663 18.6921 77.455 17.6842 77.455 17.6842V9.38032H79.7352V18.5259H86.5328V4.58775C86.3005 3.60388 85.843 2.6866 85.1959 1.90733C84.3765 0.97991 82.4035 0.433105 82.4035 0.433105H68.3286C67.1805 0.642035 66.1089 1.15083 65.2236 1.90733C64.3989 2.7061 63.8436 4.58775 63.8436 4.58775V18.8529C64.092 19.8721 64.551 20.8287 65.1913 21.662C65.7896 22.3053 67.8489 23.0022 67.8489 23.0022L86.6136 23.0719V20.8418H68.0214C68.0214 20.8418 66.2586 19.9465 66.1562 18.2686C66.0538 16.5906 66.0861 4.58775 66.0861 4.58775C66.0861 4.58775 66.8785 2.70073 68.2963 2.63104C69.714 2.56135 82.1286 2.66321 82.1286 2.66321C82.6267 2.77569 83.0849 3.01987 83.455 3.36995C83.825 3.72002 84.0931 4.163 84.231 4.65208L84.3334 16.2851H82.0262L81.9885 8.59764C81.8914 8.28972 81.7269 8.00699 81.507 7.76972C81.287 7.53245 81.017 7.34652 80.7163 7.22527L72.2261 7.19311C71.83 7.23028 71.4581 7.3992 71.1705 7.67255C70.8829 7.9459 70.6965 8.30771 70.6412 8.6995L70.6735 17.1428C70.7244 17.4537 70.866 17.7428 71.0807 17.9744C71.2953 18.206 71.5736 18.3698 71.881 18.4455L72.8514 18.4723Z" fill="white"/>
<path d="M13.6946 18.3649H10.8214L9.65703 15.5451H4.42812L3.35 18.3649H0.546875L5.64101 5.95459H8.43336L13.6946 18.3649ZM8.84305 13.4544L7.02641 8.87624L5.25828 13.4812L8.84305 13.4544Z" fill="white"/>
<path d="M14.4277 14.3286L16.9937 14.0927C17.0855 14.7847 17.4195 15.4224 17.937 15.8939C18.4879 16.3017 19.165 16.5046 19.8507 16.4676C20.5314 16.5166 21.209 16.3373 21.7752 15.9583C21.9681 15.8243 22.127 15.6475 22.2393 15.4419C22.3516 15.2362 22.4142 15.0074 22.422 14.7735C22.4296 14.4993 22.3312 14.2326 22.1471 14.0284C21.8823 13.7717 21.5556 13.5871 21.1984 13.4923C20.8911 13.3904 20.1849 13.2135 19.0852 12.9562C18.0169 12.7632 17.0056 12.3346 16.1258 11.7018C15.7476 11.4033 15.4425 11.0235 15.2333 10.5907C15.0241 10.158 14.9164 9.68375 14.9183 9.20364C14.9196 8.56845 15.1172 7.949 15.4843 7.4292C15.8876 6.86204 16.4501 6.4257 17.1015 6.17477C17.924 5.86538 18.7991 5.71791 19.6782 5.74054C21.2954 5.74054 22.5568 6.08364 23.387 6.76446C23.7943 7.09695 24.1225 7.51504 24.3481 7.98868C24.5737 8.46233 24.6909 8.97977 24.6915 9.50384L22.0501 9.61106C21.9927 9.07644 21.7324 8.58372 21.3223 8.23333C20.8243 7.92051 20.2388 7.77401 19.6513 7.81518C19.019 7.77951 18.3908 7.93661 17.8508 8.26549C17.7203 8.3478 17.6132 8.46195 17.5396 8.59707C17.466 8.73219 17.4284 8.88379 17.4303 9.03745C17.4322 9.18446 17.4688 9.32898 17.5371 9.45935C17.6055 9.58972 17.7037 9.70228 17.8238 9.78797C18.5746 10.21 19.3968 10.4917 20.2496 10.6189C21.2306 10.8112 22.187 11.1115 23.1013 11.5142C23.7123 11.7967 24.2254 12.2531 24.5757 12.8256C24.9259 13.3981 25.0975 14.0611 25.0688 14.7306C25.0676 15.4429 24.8496 16.1382 24.4435 16.7249C24.0101 17.3559 23.3932 17.8404 22.6754 18.1133C21.7633 18.4392 20.7979 18.5919 19.8291 18.5636C18.1742 18.5636 16.9074 18.2045 16.018 17.4915C15.09 16.6864 14.5186 15.5499 14.4277 14.3286Z" fill="white"/>
<path d="M30.2276 18.3649V8.05067H26.3679V5.95459H36.7449V8.05067H32.869V18.3649H30.2276Z" fill="white"/>
<path d="M38.4537 18.3651V5.95483H44.0169C45.0431 5.9123 46.07 6.02436 47.0626 6.2872C47.6872 6.5066 48.2216 6.92495 48.5827 7.4773C48.9654 8.05017 49.1646 8.72488 49.1541 9.41256C49.1851 10.2642 48.8749 11.0933 48.2916 11.7177C47.5868 12.3837 46.6733 12.7887 45.7041 12.8649C46.2259 13.1504 46.702 13.5118 47.1165 13.9371C47.6769 14.5614 48.1802 15.2342 48.6205 15.9474L50.2376 18.3705H47.0572L45.1489 15.6901C44.724 15.0543 44.2595 14.4455 43.7581 13.8674C43.5396 13.6273 43.2659 13.4433 42.9603 13.3313C42.5293 13.2093 42.0822 13.1533 41.6342 13.1651H41.0951V18.3651H38.4537ZM41.0951 11.2031H43.0789C43.8727 11.239 44.668 11.1886 45.4508 11.053C45.7519 10.9617 46.0137 10.773 46.1947 10.5169C46.3771 10.2404 46.4693 9.91465 46.4588 9.58411C46.4789 9.21392 46.3532 8.85051 46.1084 8.57091C45.843 8.29811 45.4904 8.12564 45.1112 8.08308C44.9009 8.05627 44.254 8.04019 43.1867 8.04019H41.0951V11.2031Z" fill="white"/>
<path d="M63.4393 18.3649H60.5661L59.4287 15.5451H54.1998L53.1217 18.3649H50.3185L55.4181 5.95459H58.2104L63.4393 18.3649ZM58.5878 13.4544L56.7765 8.87624L55.0084 13.4812L58.5878 13.4544Z" fill="white"/>
<path d="M100.036 18.3649H97.1631L96.0203 15.5451H90.7913L89.7132 18.3649H86.9101L92.0042 5.95459H94.7966L100.036 18.3649ZM95.1847 13.4544L93.3681 8.87624L91.5945 13.4544H95.1847Z" fill="white"/>
<path d="M103.195 18.3649V13.1649L98.4029 5.97607H101.497L104.575 10.8866L107.594 5.97607H110.634L105.826 13.1649V18.3649H103.195Z" fill="white"/>
<path d="M122.068 18.3649H119.195L118.052 15.5451H112.823L111.745 18.3649H108.942L114.036 5.95459H116.828L122.068 18.3649ZM117.216 13.4544L115.4 8.87624L113.637 13.4812L117.216 13.4544Z" fill="white"/>
</svg>
